<svg xmlns="http://www.w3.org/2000/svg" width="208" height="53" viewBox="0 0 208 53" fill="none"><path d="M102.172 14.804C102.076 14.972 101.972 15.096 101.86 15.176C101.756 15.248 101.624 15.284 101.464 15.284C101.296 15.284 101.112 15.224 100.912 15.104C100.72 14.976 100.488 14.836 100.216 14.684C99.944 14.532 99.624 14.396 99.256 14.276C98.896 14.148 98.468 14.084 97.972 14.084C97.524 14.084 97.132 14.14 96.796 14.252C96.46 14.356 96.176 14.504 95.944 14.696C95.72 14.888 95.552 15.12 95.44 15.392C95.328 15.656 95.272 15.948 95.272 16.268C95.272 16.676 95.384 17.016 95.608 17.288C95.84 17.56 96.144 17.792 96.52 17.984C96.896 18.176 97.324 18.348 97.804 18.5C98.284 18.652 98.776 18.816 99.28 18.992C99.784 19.16 100.276 19.36 100.756 19.592C101.236 19.816 101.664 20.104 102.04 20.456C102.416 20.8 102.716 21.224 102.94 21.728C103.172 22.232 103.288 22.844 103.288 23.564C103.288 24.348 103.152 25.084 102.88 25.772C102.616 26.452 102.224 27.048 101.704 27.56C101.192 28.064 100.564 28.464 99.82 28.76C99.076 29.048 98.224 29.192 97.264 29.192C96.712 29.192 96.168 29.136 95.632 29.024C95.096 28.92 94.58 28.768 94.084 28.568C93.596 28.368 93.136 28.128 92.704 27.848C92.272 27.568 91.888 27.256 91.552 26.912L92.5 25.364C92.58 25.252 92.684 25.16 92.812 25.088C92.94 25.008 93.076 24.968 93.22 24.968C93.42 24.968 93.636 25.052 93.868 25.22C94.1 25.38 94.376 25.56 94.696 25.76C95.016 25.96 95.388 26.144 95.812 26.312C96.244 26.472 96.76 26.552 97.36 26.552C98.28 26.552 98.992 26.336 99.496 25.904C100 25.464 100.252 24.836 100.252 24.02C100.252 23.564 100.136 23.192 99.904 22.904C99.68 22.616 99.38 22.376 99.004 22.184C98.628 21.984 98.2 21.816 97.72 21.68C97.24 21.544 96.752 21.396 96.256 21.236C95.76 21.076 95.272 20.884 94.792 20.66C94.312 20.436 93.884 20.144 93.508 19.784C93.132 19.424 92.828 18.976 92.596 18.44C92.372 17.896 92.26 17.228 92.26 16.436C92.26 15.804 92.384 15.188 92.632 14.588C92.888 13.988 93.256 13.456 93.736 12.992C94.216 12.528 94.808 12.156 95.512 11.876C96.216 11.596 97.024 11.456 97.936 11.456C98.96 11.456 99.904 11.616 100.768 11.936C101.632 12.256 102.368 12.704 102.976 13.28L102.172 14.804ZM114.92 22.448L112.808 16.676C112.704 16.42 112.596 16.116 112.484 15.764C112.372 15.412 112.26 15.032 112.148 14.624C112.044 15.032 111.936 15.416 111.824 15.776C111.712 16.128 111.604 16.436 111.5 16.7L109.4 22.448H114.92ZM120.62 29H118.124C117.844 29 117.616 28.932 117.44 28.796C117.264 28.652 117.132 28.476 117.044 28.268L115.748 24.728H108.56L107.264 28.268C107.2 28.452 107.076 28.62 106.892 28.772C106.708 28.924 106.48 29 106.208 29H103.688L110.516 11.648H113.804L120.62 29ZM132.849 14.3H127.617V29H124.389V14.3H119.157V11.648H132.849V14.3ZM138.348 18.92H139.104C139.408 18.92 139.66 18.88 139.86 18.8C140.06 18.712 140.232 18.576 140.376 18.392L145.164 12.332C145.364 12.076 145.572 11.9 145.788 11.804C146.012 11.7 146.292 11.648 146.628 11.648H149.412L143.568 18.86C143.224 19.3 142.868 19.612 142.5 19.796C142.764 19.892 143 20.028 143.208 20.204C143.424 20.372 143.628 20.596 143.82 20.876L149.844 29H147C146.616 29 146.328 28.948 146.135 28.844C145.951 28.732 145.796 28.572 145.668 28.364L140.76 21.956C140.608 21.74 140.432 21.588 140.232 21.5C140.032 21.412 139.744 21.368 139.368 21.368H138.348V29H135.12V11.648H138.348V18.92ZM166.201 11.648V29H162.961V21.416H154.813V29H151.573V11.648H154.813V19.112H162.961V11.648H166.201ZM173.305 29H170.065V11.648H173.305V29ZM182.434 19.904C183.042 19.904 183.57 19.828 184.018 19.676C184.474 19.524 184.846 19.316 185.134 19.052C185.43 18.78 185.65 18.46 185.794 18.092C185.938 17.724 186.01 17.32 186.01 16.88C186.01 16 185.718 15.324 185.134 14.852C184.558 14.38 183.674 14.144 182.482 14.144H180.418V19.904H182.434ZM190.738 29H187.822C187.27 29 186.87 28.784 186.622 28.352L182.974 22.796C182.838 22.588 182.686 22.44 182.518 22.352C182.358 22.264 182.118 22.22 181.798 22.22H180.418V29H177.19V11.648H182.482C183.658 11.648 184.666 11.772 185.506 12.02C186.354 12.26 187.046 12.6 187.582 13.04C188.126 13.48 188.526 14.008 188.782 14.624C189.038 15.232 189.166 15.904 189.166 16.64C189.166 17.224 189.078 17.776 188.902 18.296C188.734 18.816 188.486 19.288 188.158 19.712C187.838 20.136 187.438 20.508 186.958 20.828C186.486 21.148 185.946 21.4 185.338 21.584C185.546 21.704 185.738 21.848 185.914 22.016C186.09 22.176 186.25 22.368 186.394 22.592L190.738 29ZM201.78 22.448L199.668 16.676C199.564 16.42 199.456 16.116 199.344 15.764C199.232 15.412 199.12 15.032 199.008 14.624C198.904 15.032 198.796 15.416 198.684 15.776C198.572 16.128 198.464 16.436 198.36 16.7L196.26 22.448H201.78ZM207.48 29H204.984C204.704 29 204.476 28.932 204.3 28.796C204.124 28.652 203.992 28.476 203.904 28.268L202.608 24.728H195.42L194.124 28.268C194.06 28.452 193.936 28.62 193.752 28.772C193.568 28.924 193.34 29 193.068 29H190.548L197.376 11.648H200.664L207.48 29Z" fill="black"></path><path d="M101.07 46.858C101.13 46.858 101.181 46.879 101.223 46.921L101.583 47.308C101.319 47.59 101.031 47.845 100.719 48.073C100.413 48.295 100.074 48.487 99.702 48.649C99.336 48.805 98.931 48.925 98.487 49.009C98.049 49.099 97.566 49.144 97.038 49.144C96.156 49.144 95.346 48.991 94.608 48.685C93.876 48.373 93.246 47.935 92.718 47.371C92.19 46.801 91.779 46.114 91.485 45.31C91.197 44.506 91.053 43.612 91.053 42.628C91.053 41.662 91.203 40.78 91.503 39.982C91.803 39.184 92.223 38.5 92.763 37.93C93.303 37.354 93.951 36.91 94.707 36.598C95.463 36.28 96.297 36.121 97.209 36.121C98.079 36.121 98.85 36.256 99.522 36.526C100.194 36.796 100.806 37.177 101.358 37.669L101.079 38.074C101.031 38.146 100.956 38.182 100.854 38.182C100.782 38.182 100.665 38.116 100.503 37.984C100.341 37.852 100.116 37.708 99.828 37.552C99.54 37.39 99.18 37.243 98.748 37.111C98.322 36.979 97.809 36.913 97.209 36.913C96.441 36.913 95.736 37.045 95.094 37.309C94.458 37.573 93.909 37.951 93.447 38.443C92.991 38.935 92.634 39.535 92.376 40.243C92.118 40.951 91.989 41.746 91.989 42.628C91.989 43.528 92.118 44.332 92.376 45.04C92.64 45.748 93 46.348 93.456 46.84C93.912 47.326 94.449 47.701 95.067 47.965C95.691 48.223 96.363 48.352 97.083 48.352C97.539 48.352 97.944 48.322 98.298 48.262C98.658 48.202 98.988 48.112 99.288 47.992C99.588 47.872 99.867 47.725 100.125 47.551C100.383 47.377 100.638 47.173 100.89 46.939C100.92 46.915 100.95 46.897 100.98 46.885C101.01 46.867 101.04 46.858 101.07 46.858ZM115.867 42.628C115.867 43.612 115.72 44.506 115.426 45.31C115.132 46.108 114.718 46.792 114.184 47.362C113.65 47.926 113.008 48.364 112.258 48.676C111.514 48.982 110.692 49.135 109.792 49.135C108.892 49.135 108.07 48.982 107.326 48.676C106.582 48.364 105.943 47.926 105.409 47.362C104.875 46.792 104.461 46.108 104.167 45.31C103.873 44.506 103.726 43.612 103.726 42.628C103.726 41.65 103.873 40.762 104.167 39.964C104.461 39.16 104.875 38.476 105.409 37.912C105.943 37.342 106.582 36.901 107.326 36.589C108.07 36.277 108.892 36.121 109.792 36.121C110.692 36.121 111.514 36.277 112.258 36.589C113.008 36.895 113.65 37.333 114.184 37.903C114.718 38.473 115.132 39.16 115.426 39.964C115.72 40.762 115.867 41.65 115.867 42.628ZM114.913 42.628C114.913 41.74 114.79 40.942 114.544 40.234C114.298 39.526 113.95 38.926 113.5 38.434C113.05 37.942 112.51 37.567 111.88 37.309C111.25 37.045 110.554 36.913 109.792 36.913C109.036 36.913 108.343 37.045 107.713 37.309C107.083 37.567 106.54 37.942 106.084 38.434C105.634 38.926 105.283 39.526 105.031 40.234C104.785 40.942 104.662 41.74 104.662 42.628C104.662 43.522 104.785 44.323 105.031 45.031C105.283 45.733 105.634 46.33 106.084 46.822C106.54 47.314 107.083 47.689 107.713 47.947C108.343 48.205 109.036 48.334 109.792 48.334C110.554 48.334 111.25 48.205 111.88 47.947C112.51 47.689 113.05 47.314 113.5 46.822C113.95 46.33 114.298 45.733 114.544 45.031C114.79 44.323 114.913 43.522 114.913 42.628ZM132.094 36.265V49H131.293V38.146C131.293 37.99 131.302 37.825 131.32 37.651L126.307 46.552C126.223 46.708 126.103 46.786 125.947 46.786H125.803C125.647 46.786 125.527 46.708 125.443 46.552L120.295 37.633C120.313 37.813 120.322 37.984 120.322 38.146V49H119.512V36.265H120.151C120.235 36.265 120.301 36.274 120.349 36.292C120.397 36.31 120.445 36.358 120.493 36.436L125.632 45.292C125.722 45.46 125.8 45.64 125.866 45.832C125.902 45.736 125.941 45.643 125.983 45.553C126.025 45.457 126.07 45.367 126.118 45.283L131.113 36.436C131.161 36.358 131.209 36.31 131.257 36.292C131.311 36.274 131.38 36.265 131.464 36.265H132.094ZM149.162 36.265V49H148.361V38.146C148.361 37.99 148.37 37.825 148.388 37.651L143.375 46.552C143.291 46.708 143.171 46.786 143.015 46.786H142.871C142.715 46.786 142.595 46.708 142.511 46.552L137.363 37.633C137.381 37.813 137.39 37.984 137.39 38.146V49H136.58V36.265H137.219C137.303 36.265 137.369 36.274 137.417 36.292C137.465 36.31 137.513 36.358 137.561 36.436L142.7 45.292C142.79 45.46 142.868 45.64 142.934 45.832C142.97 45.736 143.009 45.643 143.051 45.553C143.093 45.457 143.138 45.367 143.186 45.283L148.181 36.436C148.229 36.358 148.277 36.31 148.325 36.292C148.379 36.274 148.448 36.265 148.532 36.265H149.162ZM158.31 48.343C158.922 48.343 159.468 48.238 159.948 48.028C160.434 47.812 160.845 47.515 161.181 47.137C161.517 46.759 161.772 46.315 161.946 45.805C162.126 45.289 162.216 44.734 162.216 44.14V36.265H163.134V44.14C163.134 44.842 163.023 45.499 162.801 46.111C162.579 46.717 162.258 47.248 161.838 47.704C161.424 48.154 160.917 48.508 160.317 48.766C159.723 49.024 159.054 49.153 158.31 49.153C157.566 49.153 156.894 49.024 156.294 48.766C155.7 48.508 155.193 48.154 154.773 47.704C154.359 47.248 154.041 46.717 153.819 46.111C153.597 45.499 153.486 44.842 153.486 44.14V36.265H154.413V44.131C154.413 44.725 154.5 45.28 154.674 45.796C154.854 46.306 155.109 46.75 155.439 47.128C155.775 47.506 156.183 47.803 156.663 48.019C157.149 48.235 157.698 48.343 158.31 48.343ZM177.274 36.265V49H176.842C176.764 49 176.698 48.988 176.644 48.964C176.596 48.934 176.548 48.886 176.5 48.82L168.229 37.768C168.247 37.948 168.256 38.119 168.256 38.281V49H167.446V36.265H167.905C167.989 36.265 168.052 36.277 168.094 36.301C168.142 36.319 168.193 36.364 168.247 36.436L176.5 47.461C176.482 47.281 176.473 47.11 176.473 46.948V36.265H177.274ZM182.681 49H181.754V36.265H182.681V49ZM195.447 37.048H190.974V49H190.047V37.048H185.547V36.265H195.447V37.048ZM202.244 43.753V49H201.326V43.753L196.61 36.265H197.42C197.504 36.265 197.573 36.286 197.627 36.328C197.681 36.364 197.726 36.418 197.762 36.49L201.407 42.34C201.485 42.478 201.557 42.613 201.623 42.745C201.689 42.871 201.746 42.997 201.794 43.123C201.842 42.997 201.896 42.871 201.956 42.745C202.016 42.613 202.085 42.478 202.163 42.34L205.808 36.49C205.838 36.424 205.88 36.37 205.934 36.328C205.994 36.286 206.066 36.265 206.15 36.265H206.96L202.244 43.753Z" fill="black"></path><rect y="6" width="88" height="45" rx="5" fill="#1D50C4"></rect><path d="M55.392 11.627L45.042 45H38.809L31.978 23.173C31.8707 22.8663 31.7633 22.529 31.656 22.161C31.5487 21.793 31.449 21.402 31.357 20.988C31.265 21.402 31.1653 21.793 31.058 22.161C30.9507 22.529 30.8433 22.8663 30.736 23.173L23.836 45H17.58L7.253 11.627H13.049C13.647 11.627 14.1453 11.765 14.544 12.041C14.958 12.317 15.2263 12.685 15.349 13.145L20.524 31.959C20.6467 32.4803 20.7693 33.0477 20.892 33.661C21.03 34.259 21.1603 34.8953 21.283 35.57C21.421 34.88 21.5667 34.236 21.72 33.638C21.8733 33.04 22.042 32.4803 22.226 31.959L28.252 13.145C28.3747 12.7617 28.6353 12.4167 29.034 12.11C29.448 11.788 29.9463 11.627 30.529 11.627H32.553C33.151 11.627 33.634 11.7727 34.002 12.064C34.3853 12.34 34.669 12.7003 34.853 13.145L40.856 31.959C41.04 32.4497 41.2087 32.9863 41.362 33.569C41.5153 34.1363 41.661 34.742 41.799 35.386C41.9217 34.742 42.0367 34.1363 42.144 33.569C42.2667 32.9863 42.3893 32.4497 42.512 31.959L47.687 13.145C47.7943 12.7463 48.055 12.3937 48.469 12.087C48.883 11.7803 49.3813 11.627 49.964 11.627H55.392ZM67.4264 28.233C69.5884 28.233 71.1677 27.7117 72.1644 26.669C73.1764 25.6263 73.6824 24.2003 73.6824 22.391C73.6824 21.563 73.5521 20.8117 73.2914 20.137C73.0461 19.447 72.6627 18.8643 72.1414 18.389C71.6354 17.8983 70.9914 17.5227 70.2094 17.262C69.4274 17.0013 68.4997 16.871 67.4264 16.871H63.0564V28.233H67.4264ZM67.4264 11.627C69.7111 11.627 71.6814 11.8953 73.3374 12.432C75.0087 12.9687 76.3811 13.72 77.4544 14.686C78.5277 15.6367 79.3174 16.7713 79.8234 18.09C80.3447 19.4087 80.6054 20.8423 80.6054 22.391C80.6054 24.0317 80.3371 25.5343 79.8004 26.899C79.2637 28.2637 78.4511 29.4367 77.3624 30.418C76.2737 31.3993 74.9014 32.166 73.2454 32.718C71.5894 33.2547 69.6497 33.523 67.4264 33.523H63.0564V45H56.1564V11.627H67.4264Z" fill="white"></path></svg>